# Blender v2.91.0 OBJ File: ''
# www.blender.org
mtllib Otriangle.mtl
o Body1
v -77.942291 45.000000 0.000000
v 0.000000 -90.000000 0.000000
v -77.942291 45.000000 -1.000000
v 0.000000 -90.000000 -1.000000
v 77.942291 45.000000 0.000000
v 77.942291 45.000000 -1.000000
v -86.602539 50.000000 0.000000
v 86.602539 50.000000 0.000000
v -86.602539 50.000000 -1.000000
v 86.602539 50.000000 -1.000000
v 0.000000 -100.000000 0.000000
v 0.000000 -100.000000 -1.000000
vn 0.8660 0.5000 0.0000
vn 0.0000 -1.0000 0.0000
vn -0.8660 0.5000 0.0000
vn 0.0000 1.0000 0.0000
vn -0.8660 -0.5000 0.0000
vn 0.8660 -0.5000 0.0000
vn 0.0000 0.0000 -1.0000
vn 0.0000 0.0000 1.0000
usemtl None
s off
f 1//1 2//1 3//1
f 3//1 2//1 4//1
f 5//2 1//2 6//2
f 6//2 1//2 3//2
f 2//3 5//3 4//3
f 4//3 5//3 6//3
f 7//4 8//4 9//4
f 9//4 8//4 10//4
f 11//5 7//5 12//5
f 12//5 7//5 9//5
f 8//6 11//6 10//6
f 10//6 11//6 12//6
f 6//7 10//7 4//7
f 4//7 10//7 12//7
f 4//7 12//7 9//7
f 10//7 6//7 9//7
f 9//7 6//7 3//7
f 9//7 3//7 4//7
f 2//8 8//8 5//8
f 5//8 8//8 7//8
f 5//8 7//8 1//8
f 1//8 7//8 2//8
f 2//8 7//8 11//8
f 2//8 11//8 8//8
